<svg width="229" height="68" viewBox="0 0 229 68" fill="none" xmlns="http://www.w3.org/2000/svg">
<rect x="33.5123" y="4.34418" width="41.2499" height="41.2499" rx="6.9282" transform="rotate(45 33.5123 4.34418)" fill="#1A1A1A" stroke="#EBE4D6" stroke-width="6.1436"/>
<path d="M87.45 45.4773C85.4367 45.4773 83.6317 45.0607 82.035 44.2276C80.4614 43.3714 79.1655 42.0408 78.1473 40.2358L82.3474 37.563C82.9491 38.7663 83.7127 39.6688 84.6384 40.2705C85.5872 40.849 86.6169 41.1383 87.7277 41.1383C88.8385 41.1383 89.7179 40.8837 90.3658 40.3746C91.0369 39.8655 91.3724 39.1944 91.3724 38.3614C91.3724 37.5977 91.1295 36.9729 90.6435 36.4869C90.1575 36.001 89.5327 35.6191 88.7691 35.3414C88.0285 35.0406 87.0451 34.7282 85.8186 34.4042C83.8747 33.8951 82.359 33.0736 81.2713 31.9397C80.2068 30.8058 79.6746 29.3479 79.6746 27.566C79.6746 26.1313 80.0333 24.8701 80.7507 23.7824C81.468 22.6717 82.4747 21.8155 83.7706 21.2138C85.0665 20.6121 86.5591 20.3113 88.2484 20.3113C90.0765 20.3113 91.627 20.6931 92.8998 21.4568C94.1957 22.2204 95.318 23.3428 96.2668 24.8238L92.1014 27.3925C91.4997 26.4205 90.8865 25.7263 90.2617 25.3098C89.6369 24.8701 88.8848 24.6502 88.0054 24.6502C87.0103 24.6502 86.2004 24.8932 85.5756 25.3792C84.9508 25.8651 84.6384 26.5131 84.6384 27.323C84.6384 28.133 84.9508 28.7462 85.5756 29.1628C86.2004 29.5562 87.1723 29.9611 88.4914 30.3777C90.1112 30.8868 91.4072 31.3612 92.3791 31.8008C93.351 32.2405 94.2535 32.981 95.0866 34.0224C95.9197 35.0406 96.3362 36.3944 96.3362 38.0837C96.3362 39.5416 95.9775 40.8375 95.2601 41.9714C94.5428 43.0821 93.513 43.9499 92.1708 44.5747C90.8286 45.1764 89.255 45.4773 87.45 45.4773ZM98.8238 20.7278H113.056V25.1015H103.683V30.5512H112.882V34.7861H103.683V40.6523H113.125V45.026H98.8238V20.7278ZM127.74 45.4773C124.708 45.4773 122.209 44.4243 120.242 42.3185L123.401 39.4374C124.72 40.9185 126.132 41.659 127.636 41.659C128.423 41.659 129.036 41.4854 129.476 41.1383C129.915 40.7912 130.135 40.3399 130.135 39.7845C130.135 39.2754 129.915 38.882 129.476 38.6043C129.059 38.3035 128.18 37.9911 126.837 37.6671C124.639 37.1349 123.158 36.4059 122.394 35.4803C121.654 34.5546 121.284 33.4092 121.284 32.0438C121.284 30.424 121.885 29.1049 123.089 28.0867C124.292 27.0453 125.935 26.5247 128.018 26.5247C129.522 26.5247 130.783 26.7561 131.801 27.2189C132.843 27.6817 133.815 28.4917 134.717 29.6487L131.315 32.2521C130.505 30.9562 129.441 30.3082 128.122 30.3082C127.451 30.3082 126.907 30.4471 126.49 30.7248C126.074 30.9793 125.866 31.3727 125.866 31.905C125.866 32.2752 126.016 32.5992 126.317 32.8769C126.641 33.1315 127.3 33.386 128.295 33.6406C130.771 34.2885 132.461 35.0869 133.363 36.0357C134.289 36.9845 134.752 38.1878 134.752 39.6457C134.752 40.7333 134.439 41.7284 133.815 42.6309C133.213 43.5103 132.38 44.2045 131.315 44.7136C130.251 45.2227 129.059 45.4773 127.74 45.4773ZM150.498 42.3532C149.988 43.3483 149.271 44.1235 148.345 44.6789C147.443 45.2111 146.263 45.4773 144.805 45.4773C143.185 45.4773 141.692 45.0607 140.327 44.2276C138.962 43.3714 137.874 42.2259 137.064 40.7912C136.277 39.3564 135.884 37.7828 135.884 36.0704C135.884 34.3579 136.277 32.7843 137.064 31.3496C137.874 29.8917 138.962 28.7346 140.327 27.8784C141.692 27.0222 143.185 26.5941 144.805 26.5941C146.309 26.5941 147.512 26.8834 148.415 27.4619C149.317 28.0173 150.035 28.8272 150.567 29.8917V26.9759H155.184V51.9683H150.498V42.3532ZM140.57 36.0357C140.57 36.9613 140.778 37.8291 141.195 38.6391C141.635 39.4258 142.225 40.0622 142.965 40.5482C143.729 41.011 144.597 41.2424 145.568 41.2424C146.564 41.2424 147.443 41.011 148.207 40.5482C148.993 40.0854 149.595 39.4606 150.012 38.6738C150.428 37.887 150.636 37.0192 150.636 36.0704C150.636 35.1216 150.428 34.2538 150.012 33.467C149.595 32.6571 148.993 32.0207 148.207 31.5579C147.443 31.0719 146.564 30.8289 145.568 30.8289C144.597 30.8289 143.729 31.0719 142.965 31.5579C142.201 32.0207 141.611 32.6455 141.195 33.4323C140.778 34.2191 140.57 35.0869 140.57 36.0357ZM164.667 45.4425C163.371 45.4425 162.203 45.1417 161.161 44.54C160.12 43.9152 159.299 43.0474 158.697 41.9367C158.095 40.8027 157.794 39.4953 157.794 38.0142V26.9759H162.48V36.8688C162.48 39.854 163.684 41.3466 166.09 41.3466C167.155 41.3466 168.046 40.9763 168.763 40.2358C169.481 39.4721 169.839 38.3498 169.839 36.8688V26.9759H174.525V45.026H169.978V42.3185C169.538 43.383 168.891 44.1698 168.034 44.6789C167.178 45.188 166.056 45.4425 164.667 45.4425ZM185.516 45.4773C183.897 45.4773 182.404 45.0607 181.039 44.2276C179.673 43.3714 178.586 42.2259 177.776 40.7912C176.989 39.3564 176.596 37.7828 176.596 36.0704C176.596 34.3579 176.989 32.7843 177.776 31.3496C178.586 29.8917 179.673 28.7346 181.039 27.8784C182.404 27.0222 183.897 26.5941 185.516 26.5941C186.998 26.5941 188.189 26.8718 189.092 27.4272C190.017 27.9826 190.735 28.7809 191.244 29.8223V26.9759H195.895V45.026H191.348V42.0755C190.816 43.1631 190.087 44.0078 189.161 44.6095C188.259 45.188 187.044 45.4773 185.516 45.4773ZM181.282 36.0357C181.282 36.9613 181.49 37.8291 181.906 38.6391C182.346 39.4258 182.936 40.0622 183.677 40.5482C184.44 41.011 185.308 41.2424 186.28 41.2424C187.275 41.2424 188.155 41.011 188.918 40.5482C189.705 40.0854 190.307 39.4606 190.723 38.6738C191.14 37.887 191.348 37.0192 191.348 36.0704C191.348 35.1216 191.14 34.2538 190.723 33.467C190.307 32.6571 189.705 32.0207 188.918 31.5579C188.155 31.0719 187.275 30.8289 186.28 30.8289C185.308 30.8289 184.44 31.0719 183.677 31.5579C182.913 32.0207 182.323 32.6455 181.906 33.4323C181.49 34.2191 181.282 35.0869 181.282 36.0357ZM198.68 26.9759H203.227V30.4124C203.551 29.0933 204.176 28.0983 205.101 27.4272C206.05 26.7561 207.288 26.4668 208.815 26.5594V30.9678H208.156C206.767 30.9678 205.622 31.4074 204.719 32.2868C203.817 33.143 203.366 34.3117 203.366 35.7927V45.026H198.68V26.9759ZM218.136 45.4773C216.308 45.4773 214.688 45.0607 213.277 44.2276C211.865 43.3714 210.766 42.2259 209.979 40.7912C209.192 39.3564 208.799 37.7713 208.799 36.0357C208.799 34.3232 209.204 32.7381 210.014 31.2802C210.824 29.8223 211.934 28.6652 213.346 27.809C214.781 26.9528 216.378 26.5247 218.136 26.5247C219.895 26.5247 221.469 26.9528 222.857 27.809C224.269 28.6652 225.356 29.8223 226.12 31.2802C226.907 32.7149 227.3 34.3001 227.3 36.0357C227.3 36.6142 227.254 37.1696 227.161 37.7018H213.658C213.936 38.7895 214.457 39.6688 215.22 40.3399C216.007 40.9879 216.979 41.3119 218.136 41.3119C219.108 41.3119 219.976 41.092 220.74 40.6523C221.503 40.1895 222.105 39.5994 222.545 38.882L226.189 41.6243C225.449 42.7813 224.361 43.7185 222.926 44.4359C221.492 45.1301 219.895 45.4773 218.136 45.4773ZM222.579 34.196C222.302 33.1546 221.758 32.2868 220.948 31.5926C220.138 30.8983 219.178 30.5512 218.067 30.5512C216.979 30.5512 216.03 30.8868 215.22 31.5579C214.434 32.229 213.913 33.1083 213.658 34.196H222.579Z" fill="#EC6331"/>
<path d="M23.0895 47.4354C20.8695 47.4354 18.8791 46.9761 17.1183 46.0574C15.3831 45.1133 13.9541 43.646 12.8313 41.6556L17.4628 38.7082C18.1263 40.0351 18.9684 41.0304 19.9891 41.6938C21.0353 42.3318 22.1709 42.6508 23.3958 42.6508C24.6206 42.6508 25.5903 42.3701 26.3048 41.8087C27.0449 41.2473 27.4149 40.5072 27.4149 39.5886C27.4149 38.7465 27.1469 38.0575 26.6111 37.5216C26.0752 36.9857 25.3862 36.5647 24.5441 36.2585C23.7275 35.9267 22.643 35.5822 21.2905 35.225C19.147 34.6636 17.4756 33.7577 16.2762 32.5073C15.1024 31.2569 14.5155 29.6493 14.5155 27.6844C14.5155 26.1022 14.911 24.7115 15.702 23.5122C16.4931 22.2873 17.6031 21.3431 19.0322 20.6796C20.4612 20.0162 22.1071 19.6844 23.9699 19.6844C25.9859 19.6844 27.6956 20.1055 29.0991 20.9476C30.5281 21.7897 31.7657 23.0273 32.812 24.6605L28.2187 27.493C27.5552 26.4212 26.879 25.6557 26.19 25.1964C25.501 24.7115 24.6717 24.4691 23.702 24.4691C22.6047 24.4691 21.7116 24.737 21.0226 25.2729C20.3336 25.8088 19.9891 26.5233 19.9891 27.4164C19.9891 28.3096 20.3336 28.9858 21.0226 29.4451C21.7116 29.8789 22.7833 30.3255 24.2379 30.7848C26.0241 31.3462 27.4532 31.8693 28.5249 32.3542C29.5967 32.839 30.5919 33.6556 31.5105 34.8039C32.4292 35.9267 32.8885 37.4195 32.8885 39.2824C32.8885 40.89 32.493 42.319 31.7019 43.5694C30.9109 44.7943 29.7753 45.7512 28.2952 46.4402C26.8152 47.1037 25.08 47.4354 23.0895 47.4354ZM35.6316 20.1438H51.3253V24.9667H40.9904V30.9762H51.1339V35.646H40.9904V42.1149H51.4018V46.9378H35.6316V20.1438Z" fill="white"/>
<rect x="33.5123" y="4.34418" width="41.2499" height="41.2499" rx="6.9282" transform="rotate(45 33.5123 4.34418)" stroke="#1A1A1A" stroke-width="6.1436"/>
</svg>
