<svg width="212" height="74" viewBox="0 0 212 74" fill="none" xmlns="http://www.w3.org/2000/svg">
<path fill-rule="evenodd" clip-rule="evenodd" d="M173.909 21.5675H172.465L172.743 20.138C172.815 19.7709 172.562 19.4606 172.191 19.4606C171.82 19.4606 171.446 19.7709 171.374 20.138L171.096 21.5675H169.652C169.281 21.5675 168.908 21.8777 168.836 22.2448C168.765 22.6119 169.018 22.9222 169.389 22.9222H170.833L170.555 24.3516C170.484 24.7187 170.736 25.029 171.107 25.029C171.478 25.029 171.852 24.7187 171.923 24.3516L172.201 22.9222H173.645C174.015 22.9222 174.39 22.6119 174.461 22.2448C174.534 21.8785 174.28 21.5675 173.909 21.5675Z" fill="black"/>
<path fill-rule="evenodd" clip-rule="evenodd" d="M59.2378 35.3347C59.9394 35.6961 61.2023 36.1957 62.4096 36.1681C63.5041 36.1681 64.0936 35.584 64.0936 34.8628C64.0936 34.1685 63.6725 33.6965 62.4932 33.0298C61.0341 32.1964 59.9394 31.0294 59.9394 29.5017C59.9394 26.8068 62.2692 24.89 65.6648 24.89C67.1528 24.89 68.303 25.1679 68.9205 25.5293L68.0227 28.2517C67.4892 28.0016 66.6194 27.7238 65.6092 27.7238C64.5143 27.7238 63.8128 28.2241 63.8128 29.0014C63.8128 29.6121 64.3183 30.0572 65.3005 30.5851C66.8161 31.4461 68.079 32.6131 68.079 34.2521C68.079 37.3076 65.5812 39.0302 62.1009 39.0025C60.5007 38.9749 59.0129 38.5575 58.2842 38.0579L59.2378 35.3347Z" fill="black"/>
<path fill-rule="evenodd" clip-rule="evenodd" d="M68.8652 38.9271L72.6263 19.4761H76.4998L75.0118 27.0164L75.0678 26.9668C76.1056 25.7445 77.4532 24.9007 79.1649 24.9007C81.1863 24.9007 82.3369 26.1871 82.3369 28.354C82.3369 29.0208 82.2242 30.0986 82.0562 30.9327L80.5405 38.9279H76.6671L78.126 31.1724C78.2376 30.6445 78.2951 29.9613 78.2951 29.4343C78.2951 28.6009 77.9587 27.9959 77.0881 27.9959C75.8529 27.9959 74.5336 29.6284 74.0289 32.1568L72.7372 38.9279L68.8652 38.9271Z" fill="black"/>
<path fill-rule="evenodd" clip-rule="evenodd" d="M87.3063 33.5854C87.3063 34.9742 87.8674 36.0852 89.1871 36.0852C91.2354 36.0852 92.3867 32.4735 92.3867 30.1125C92.3867 28.9738 91.9369 27.8074 90.5623 27.8074C88.4569 27.8067 87.3063 31.39 87.3063 33.5854ZM96.3438 30.2237C96.3438 34.9742 93.2558 39.0302 88.6809 39.0302C85.2005 39.0302 83.3481 36.6407 83.3481 33.6682C83.3481 29.0289 86.4365 24.8617 91.0951 24.8617C94.7165 24.8625 96.3438 27.4737 96.3438 30.2237Z" fill="black"/>
<path fill-rule="evenodd" clip-rule="evenodd" d="M100.948 35.5849C101.369 35.9179 101.846 36.1404 102.549 36.1404C104.71 36.1404 106.198 32.6123 106.198 30.14C106.198 29.1127 105.832 28.0291 104.654 28.0291C103.306 28.0291 102.044 29.6129 101.595 32.0015L100.948 35.5849ZM95.418 44.3306L98.1118 30.3123C98.4212 28.7285 98.7292 26.6801 98.8983 25.2385H102.323L102.098 27.3998H102.154C103.192 25.9589 104.708 24.9916 106.251 24.9916C109.085 24.9916 110.237 27.2324 110.237 29.816C110.237 34.4836 107.262 39.0805 102.715 39.0805C101.76 39.0805 100.891 38.927 100.441 38.5673H100.356L99.2896 44.3306H95.418Z" fill="black"/>
<path fill-rule="evenodd" clip-rule="evenodd" d="M115.375 23.7985C114.281 23.7985 113.551 22.8718 113.551 21.7331C113.551 20.4832 114.534 19.4363 115.769 19.4363C116.947 19.4363 117.705 20.3541 117.705 21.4651C117.678 22.8815 116.639 23.7993 115.432 23.7993L115.375 23.7985ZM110.351 38.927L112.961 25.2393H116.863L114.224 38.927H110.351Z" fill="black"/>
<path fill-rule="evenodd" clip-rule="evenodd" d="M117.592 38.9271L119.641 28.121H117.844L118.406 25.2394H120.202L120.315 24.5506C120.624 22.9392 121.241 21.3027 122.56 20.1916C123.598 19.3031 124.974 18.9011 126.35 18.9011C127.304 18.9011 128.006 19.0343 128.455 19.2284L127.697 22.2253C127.361 22.1149 126.967 22.0296 126.462 22.0296C125.17 22.0296 124.384 23.2454 124.16 24.5514L124.02 25.2394H126.714L126.181 28.121H123.514L121.465 38.9271H117.592Z" fill="black"/>
<path fill-rule="evenodd" clip-rule="evenodd" d="M131.515 25.2393L132.132 31.3664C132.301 32.7276 132.413 33.8842 132.468 34.6046H132.524C132.834 33.8842 133.114 32.8105 133.676 31.3388L136.033 25.2401H140.075L135.332 35.2608C133.648 38.7053 132.02 41.2157 130.251 42.8547C128.876 44.1323 127.248 44.7626 126.461 44.9291L125.395 41.6738C126.04 41.4513 126.854 41.1159 127.584 40.5888C128.482 39.978 129.24 39.1431 129.689 38.2822C129.801 38.088 129.829 37.9566 129.773 37.6787L127.444 25.241L131.515 25.2393Z" fill="black"/>
<path fill-rule="evenodd" clip-rule="evenodd" d="M170.741 26.5266C170.37 26.5266 169.996 26.8369 169.925 27.204L168.616 33.9281C167.906 37.353 165.781 37.8209 163.789 37.8209C160.2 37.8209 160.11 35.7977 160.495 33.8183L162.033 25.9158C162.104 25.5488 161.851 25.2385 161.48 25.2385C161.109 25.2385 160.735 25.5488 160.664 25.9158L159.126 33.8183C158.817 35.4111 158.926 36.6001 159.465 37.4521C160.139 38.521 161.513 39.0627 163.546 39.0627C165.58 39.0627 167.164 38.5202 168.255 37.4521C169.125 36.6001 169.699 35.4111 170.008 33.8183L171.295 27.204C171.365 26.8369 171.112 26.5266 170.741 26.5266Z" fill="black"/>
<path fill-rule="evenodd" clip-rule="evenodd" d="M158.375 19.4988C158.005 19.4988 157.63 19.8091 157.559 20.1762L154.048 38.2188C153.977 38.586 154.23 38.8962 154.601 38.8962C154.971 38.8962 155.346 38.586 155.417 38.2188L158.927 20.1762C158.999 19.8083 158.746 19.4988 158.375 19.4988Z" fill="black"/>
<path fill-rule="evenodd" clip-rule="evenodd" d="M41.5992 17.6974C41.5877 16.9299 41.495 15.8627 41.1339 14.9401C42.296 15.1577 42.8679 16.4588 43.1092 17.2345C42.6619 17.3717 42.1523 17.5277 41.5992 17.6974ZM35.5168 27.8773C35.6202 29.4992 39.9317 29.8533 40.1738 33.6527C40.3642 36.6416 38.572 38.6859 35.9895 38.8474C32.89 39.0408 31.1839 37.2312 31.1839 37.2312L31.8404 34.4657C31.8404 34.4657 33.558 35.7482 34.9325 35.662C35.8303 35.606 36.1511 34.8832 36.1191 34.3715C35.9845 32.2557 32.4739 32.38 32.2515 28.9038C32.0652 25.9784 34.006 23.0139 38.2897 22.7459C39.9399 22.6428 40.7852 23.0595 40.7852 23.0595L39.8053 26.6859C39.8053 26.6859 38.7131 26.1936 37.4173 26.2741C35.5176 26.3951 35.4971 27.5808 35.5168 27.8773ZM38.4956 14.0101C38.8551 14.0028 39.1579 14.0808 39.4164 14.2489C39.0028 14.4617 38.6023 14.7671 38.2273 15.165C37.2549 16.1973 36.5097 17.8006 36.2127 19.347C35.2853 19.6312 34.3786 19.9089 33.5448 20.1648C34.0708 17.7307 36.1323 14.0775 38.4956 14.0101ZM40.5817 18.0093C39.5624 18.3219 38.4497 18.6631 37.3328 19.005C37.6471 17.8152 38.2421 16.6302 38.9732 15.8538C39.2449 15.5646 39.6256 15.243 40.0761 15.0586C40.5004 15.9325 40.5915 17.1719 40.5817 18.0093ZM45.0295 16.6456C45.027 16.6464 44.6766 16.7536 44.0841 16.9356C43.9856 16.6179 43.8395 16.2273 43.6319 15.835C42.9623 14.5705 41.9808 13.9004 40.7959 13.8987H40.7917C40.7097 13.8987 40.6276 13.906 40.5456 13.9134C40.5111 13.8719 40.4758 13.8306 40.438 13.7916C39.9219 13.245 39.2588 12.9785 38.4661 13.0014C36.9348 13.0452 35.4101 14.1391 34.1742 16.0828C33.3036 17.4504 32.643 19.1691 32.455 20.4986C30.6972 21.0371 29.4671 21.4148 29.4409 21.4229C28.5538 21.6982 28.5259 21.7258 28.4093 22.5534C28.3215 23.1796 26 40.9494 26 40.9494L45.2633 44.2468V16.6065C45.1681 16.613 45.0828 16.6301 45.0295 16.6456Z" fill="black"/>
<path fill-rule="evenodd" clip-rule="evenodd" d="M45.8999 44.1721L53.8911 42.2059C53.8911 42.2059 50.4503 19.1821 50.4289 19.0237C50.4068 18.8661 50.2673 18.7784 50.1524 18.7687C50.0375 18.7589 47.7874 18.7256 47.7874 18.7256C47.7874 18.7256 46.4153 17.4075 45.8999 16.908V44.1721Z" fill="black"/>
<path fill-rule="evenodd" clip-rule="evenodd" d="M145.777 37.8217C142.853 37.8217 141.696 35.8269 142.431 32.0535C143.173 28.2445 145.023 26.313 147.932 26.313C151.111 26.313 152.291 28.1908 151.539 32.0535C150.772 35.9886 148.942 37.8217 145.777 37.8217ZM148.258 25.0704C146.26 25.0704 144.62 25.7591 143.455 27.0749L143.681 25.915C143.752 25.5479 143.499 25.2377 143.128 25.2377C142.757 25.2377 142.383 25.5479 142.313 25.915L138.86 43.654C138.789 44.0211 139.042 44.3313 139.413 44.3313C139.783 44.3313 140.158 44.0211 140.229 43.654L141.511 37.0655C141.983 37.9078 143.078 39.0626 145.535 39.0626C147.458 39.0626 149.07 38.478 150.329 37.3229C151.628 36.1315 152.515 34.3585 152.963 32.0519C153.413 29.747 153.215 27.978 152.378 26.7946C151.569 25.6511 150.182 25.0704 148.258 25.0704Z" fill="black"/>
<path fill-rule="evenodd" clip-rule="evenodd" d="M178.047 31.3039C176.313 30.6671 174.674 30.0661 174.986 28.4661C175.143 27.6621 175.802 26.3122 178.458 26.3122C179.951 26.3122 180.893 26.7207 181.71 27.723C181.863 27.9098 182.037 27.9098 182.111 27.9098C182.451 27.9098 182.794 27.6255 182.86 27.2885C182.896 27.1057 182.861 26.9977 182.779 26.8539C182.776 26.8483 182.773 26.8426 182.769 26.8369C181.94 25.6641 180.571 25.0696 178.7 25.0696C175.973 25.0696 174.026 26.3707 173.617 28.4653C173.13 30.9725 175.372 31.8123 177.352 32.553C179.062 33.193 180.679 33.7973 180.379 35.3308C179.958 37.4968 177.663 37.8201 176.332 37.8201C174.497 37.8201 173.364 37.3262 172.543 36.1681C172.54 36.1648 172.537 36.1607 172.535 36.1575C172.433 36.0333 172.298 35.9707 172.134 35.9707C171.831 35.9707 171.457 36.2209 171.385 36.592C171.349 36.7739 171.384 36.8811 171.466 37.0257C172.012 38.0385 173.655 39.0627 176.091 39.0627C179.179 39.0627 181.294 37.6674 181.748 35.3308C182.234 32.8397 180.009 32.0235 178.047 31.3039Z" fill="black"/>
<path d="M136.003 60L137.719 50.8531C137.935 49.7042 138.096 48.6881 138.201 47.8991H138.935L138.666 49.6349H138.702C139.472 48.4722 140.546 47.7192 141.692 47.7192C143.323 47.7192 143.929 49.1145 143.929 50.5125C143.929 53.4139 141.941 56.6696 139.203 56.6696C138.361 56.6696 137.808 56.473 137.484 56.2931H137.448L136.77 59.9972H136L136.003 60ZM137.614 55.5096C138.007 55.8141 138.58 55.9913 139.278 55.9913C141.551 55.9913 143.126 52.7688 143.126 50.5651C143.126 49.5436 142.733 48.4168 141.462 48.4168C140.191 48.4168 138.652 49.9561 138.168 52.5529L137.611 55.5068L137.614 55.5096Z" fill="black"/>
<path d="M149.856 56.4896C149.836 55.9719 149.944 55.1663 150.069 54.1807H150.035C149.05 56.0771 147.959 56.6696 146.83 56.6696C145.526 56.6696 144.734 55.5954 144.734 54.0562C144.734 51.1382 146.83 47.7192 150.16 47.7192C150.769 47.7192 151.45 47.8271 151.896 47.9683L150.982 52.6055C150.678 54.1973 150.57 55.5788 150.606 56.4896H149.853H149.856ZM151.004 48.5414C150.808 48.4694 150.503 48.4168 149.966 48.4168C147.497 48.4168 145.562 51.1742 145.545 53.8762C145.526 54.9864 145.85 55.9885 147.012 55.9885C148.408 55.9885 149.986 53.8956 150.395 51.6753L151.004 48.5414Z" fill="black"/>
<path d="M152.629 56.4896L153.723 50.7063C153.936 49.6156 154.063 48.6466 154.135 47.8964H154.852C154.78 48.4528 154.708 49.0231 154.601 49.7595H154.637C155.174 48.6106 156.015 47.7192 157.089 47.7192C157.197 47.7192 157.305 47.733 157.411 47.7552L157.267 48.5608C157.167 48.5386 157.064 48.5248 156.962 48.5248C155.835 48.5248 154.581 50.2246 154.224 52.1238L153.418 56.4924H152.632L152.629 56.4896Z" fill="black"/>
<path d="M160.669 46L160.293 47.8992H162.316L162.172 48.5608H160.149L159.199 53.6797C159.091 54.2527 159.019 54.7012 159.019 55.1663C159.019 55.6674 159.252 55.9719 159.789 55.9719C160.074 55.9719 160.254 55.9553 160.414 55.9L160.467 56.5256C160.193 56.6087 159.91 56.6502 159.625 56.6502C158.604 56.6502 158.211 55.9719 158.211 55.2549C158.211 54.7898 158.263 54.3413 158.407 53.6797L159.373 48.5608H158.139L158.263 47.8992H159.515L159.8 46.3599L160.663 46.0028L160.669 46Z" fill="black"/>
<path d="M162.118 56.4896L163.267 50.4212C163.442 49.5879 163.572 48.7435 163.661 47.8964H164.375L164.139 49.6516H164.175C164.928 48.4002 166 47.7192 167.165 47.7192C168.007 47.7192 169.081 48.2563 169.081 49.8841C169.081 50.3132 169.009 50.7423 168.921 51.2074L167.935 56.4896H167.165L168.168 51.2074C168.248 50.7949 168.289 50.3769 168.292 49.9561C168.292 49.0619 167.935 48.4168 166.877 48.4168C165.729 48.4168 164.12 49.8481 163.746 51.9244L162.905 56.4896H162.116H162.118Z" fill="black"/>
<path d="M175.381 56.0079C174.932 56.2931 174.11 56.653 173.036 56.653C171.032 56.653 170.334 55.0777 170.334 53.4305C170.334 50.961 172.053 47.7192 174.523 47.7192C175.937 47.7192 176.527 48.6494 176.527 49.5962C176.527 51.7805 174.022 52.3895 171.209 52.3702C171.12 52.7633 171.104 53.8928 171.281 54.4991C171.585 55.4847 172.247 55.9498 173.158 55.9498C174.069 55.9498 174.75 55.6093 175.146 55.3767L175.381 56.0051V56.0079ZM174.379 48.4168C173.055 48.4168 171.854 49.8481 171.336 51.6919C173.573 51.7085 175.721 51.3348 175.721 49.6322C175.721 48.8266 175.184 48.4141 174.379 48.4141V48.4168Z" fill="black"/>
<path d="M176.958 56.4896L178.052 50.7063C178.267 49.6156 178.392 48.6466 178.464 47.8964H179.181C179.109 48.4528 179.037 49.0231 178.929 49.7595H178.965C179.502 48.6106 180.344 47.7192 181.418 47.7192C181.526 47.7192 181.634 47.733 181.739 47.7552L181.595 48.5608C181.495 48.5386 181.393 48.5248 181.291 48.5248C180.164 48.5248 178.91 50.2246 178.553 52.1238L177.747 56.4924H176.961L176.958 56.4896Z" fill="black"/>
<rect x="0.5" y="0.5" width="211" height="73" rx="9.5" stroke="#1A1A1A"/>
</svg>
